<svg width="195" height="41" viewBox="0 0 195 41" fill="none" xmlns="http://www.w3.org/2000/svg">
<path d="M18.041 30H0.773438V0.0175781H18.041V5.22656H7.13086V11.8096H17.2822V17.0186H7.13086V24.75H18.041V30ZM32.7205 18.29L25.3377 7.07227H32.4334L36.8836 14.373L41.3748 7.07227H48.4705L41.0057 18.29L48.8191 30H41.7029L36.8836 22.1455L32.0438 30H24.948L32.7205 18.29ZM69.2613 6.6416C71.8453 6.6416 73.9303 7.64648 75.5162 9.65625C77.1158 11.666 77.9156 14.6123 77.9156 18.4951C77.9156 21.0928 77.5396 23.2803 76.7877 25.0576C76.0357 26.8213 74.9967 28.1543 73.6705 29.0566C72.3443 29.959 70.8199 30.4102 69.0973 30.4102C67.9898 30.4102 67.0396 30.2734 66.2467 30C65.4537 29.7129 64.777 29.3506 64.2164 28.9131C63.6559 28.4619 63.1705 27.9834 62.7604 27.4775H62.4322C62.5416 28.0244 62.6236 28.585 62.6783 29.1592C62.733 29.7334 62.7604 30.2939 62.7604 30.8408V40.0898H56.5055V7.07227H61.5914L62.4732 10.0459H62.7604C63.1705 9.43066 63.6695 8.86328 64.2574 8.34375C64.8453 7.82422 65.5494 7.41406 66.3697 7.11328C67.2037 6.79883 68.1676 6.6416 69.2613 6.6416ZM67.2516 11.6455C66.1578 11.6455 65.2896 11.8711 64.6471 12.3223C64.0045 12.7734 63.5328 13.4502 63.232 14.3525C62.9449 15.2549 62.7877 16.3965 62.7604 17.7773V18.4541C62.7604 19.9307 62.8971 21.1816 63.1705 22.207C63.4576 23.2324 63.9293 24.0117 64.5855 24.5449C65.2555 25.0781 66.1715 25.3447 67.3336 25.3447C68.2906 25.3447 69.0768 25.0781 69.692 24.5449C70.3072 24.0117 70.7652 23.2324 71.066 22.207C71.3805 21.168 71.5377 19.9033 71.5377 18.4131C71.5377 16.1709 71.1891 14.4824 70.4918 13.3477C69.7945 12.2129 68.7145 11.6455 67.2516 11.6455ZM96.7377 6.6416C98.8568 6.6416 100.682 7.05176 102.213 7.87207C103.745 8.67871 104.927 9.85449 105.761 11.3994C106.595 12.9443 107.012 14.8311 107.012 17.0596V20.0947H92.226C92.2943 21.8584 92.8207 23.2461 93.8051 24.2578C94.8031 25.2559 96.184 25.7549 97.9477 25.7549C99.4105 25.7549 100.75 25.6045 101.967 25.3037C103.184 25.0029 104.435 24.5518 105.72 23.9502V28.79C104.585 29.3506 103.396 29.7607 102.152 30.0205C100.921 30.2803 99.4242 30.4102 97.6605 30.4102C95.3637 30.4102 93.3266 29.9863 91.5492 29.1387C89.7855 28.291 88.3979 26.999 87.3861 25.2627C86.3881 23.5264 85.8891 21.3389 85.8891 18.7002C85.8891 16.0205 86.3402 13.792 87.2426 12.0146C88.1586 10.2236 89.4301 8.88379 91.057 7.99512C92.684 7.09277 94.5775 6.6416 96.7377 6.6416ZM96.7787 11.0918C95.5619 11.0918 94.5502 11.4814 93.7436 12.2607C92.9506 13.04 92.4926 14.2637 92.3695 15.9316H101.147C101.133 15.002 100.962 14.1748 100.634 13.4502C100.32 12.7256 99.8412 12.1514 99.1986 11.7275C98.5697 11.3037 97.7631 11.0918 96.7787 11.0918ZM129.321 6.6416C131.768 6.6416 133.737 7.31152 135.227 8.65137C136.717 9.97754 137.462 12.1104 137.462 15.0498V30H131.207V16.6084C131.207 14.9678 130.906 13.7305 130.305 12.8965C129.717 12.0625 128.787 11.6455 127.516 11.6455C125.602 11.6455 124.296 12.2949 123.599 13.5938C122.902 14.8926 122.553 16.7656 122.553 19.2129V30H116.298V7.07227H121.076L121.917 10.0049H122.266C122.758 9.21191 123.366 8.56934 124.091 8.07715C124.829 7.58496 125.643 7.22266 126.531 6.99023C127.434 6.75781 128.363 6.6416 129.321 6.6416ZM164.098 23.1914C164.098 24.75 163.729 26.0693 162.99 27.1494C162.266 28.2158 161.179 29.0293 159.729 29.5898C158.28 30.1367 156.476 30.4102 154.315 30.4102C152.716 30.4102 151.342 30.3076 150.193 30.1025C149.059 29.8975 147.91 29.5557 146.748 29.0771V23.9092C147.992 24.4697 149.325 24.9346 150.747 25.3037C152.183 25.6592 153.44 25.8369 154.521 25.8369C155.737 25.8369 156.605 25.6592 157.125 25.3037C157.658 24.9346 157.925 24.4561 157.925 23.8682C157.925 23.4854 157.815 23.1436 157.597 22.8428C157.392 22.5283 156.94 22.1797 156.243 21.7969C155.546 21.4004 154.452 20.8877 152.962 20.2588C151.526 19.6572 150.344 19.0488 149.414 18.4336C148.498 17.8184 147.814 17.0938 147.363 16.2598C146.926 15.4121 146.707 14.3389 146.707 13.04C146.707 10.9209 147.527 9.32812 149.168 8.26172C150.822 7.18164 153.03 6.6416 155.792 6.6416C157.214 6.6416 158.567 6.78516 159.853 7.07227C161.151 7.35938 162.484 7.81738 163.852 8.44629L161.965 12.958C160.83 12.4658 159.757 12.0625 158.745 11.748C157.747 11.4336 156.729 11.2764 155.689 11.2764C154.773 11.2764 154.083 11.3994 153.618 11.6455C153.153 11.8916 152.921 12.2676 152.921 12.7734C152.921 13.1426 153.037 13.4707 153.27 13.7578C153.516 14.0449 153.98 14.3662 154.664 14.7217C155.361 15.0635 156.38 15.5078 157.72 16.0547C159.019 16.5879 160.146 17.1484 161.104 17.7363C162.061 18.3105 162.799 19.0283 163.318 19.8896C163.838 20.7373 164.098 21.8379 164.098 23.1914ZM194.014 18.4951C194.014 20.4092 193.755 22.1045 193.235 23.5811C192.729 25.0576 191.984 26.3086 191 27.334C190.029 28.3457 188.853 29.1113 187.472 29.6309C186.105 30.1504 184.56 30.4102 182.838 30.4102C181.224 30.4102 179.741 30.1504 178.387 29.6309C177.048 29.1113 175.879 28.3457 174.881 27.334C173.896 26.3086 173.131 25.0576 172.584 23.5811C172.051 22.1045 171.784 20.4092 171.784 18.4951C171.784 15.9521 172.235 13.7988 173.137 12.0352C174.04 10.2715 175.325 8.93164 176.993 8.01562C178.661 7.09961 180.65 6.6416 182.961 6.6416C185.107 6.6416 187.008 7.09961 188.662 8.01562C190.33 8.93164 191.636 10.2715 192.579 12.0352C193.536 13.7988 194.014 15.9521 194.014 18.4951ZM178.162 18.4951C178.162 19.999 178.326 21.2637 178.654 22.2891C178.982 23.3145 179.495 24.0869 180.192 24.6064C180.889 25.126 181.799 25.3857 182.92 25.3857C184.027 25.3857 184.923 25.126 185.606 24.6064C186.304 24.0869 186.809 23.3145 187.124 22.2891C187.452 21.2637 187.616 19.999 187.616 18.4951C187.616 16.9775 187.452 15.7197 187.124 14.7217C186.809 13.71 186.304 12.9512 185.606 12.4453C184.909 11.9395 184 11.6865 182.879 11.6865C181.224 11.6865 180.021 12.2539 179.269 13.3887C178.531 14.5234 178.162 16.2256 178.162 18.4951Z" fill="url(#paint0_linear_1_22)"/>
<defs>
<linearGradient id="paint0_linear_1_22" x1="86.6809" y1="26" x2="195.955" y2="22.5733" gradientUnits="userSpaceOnUse">
<stop stop-color="#343C7E"/>
<stop offset="1" stop-color="#343C7E" stop-opacity="0.96"/>
</linearGradient>
</defs>
</svg>
